<svg width="76" height="62" viewBox="0 0 76 62" fill="none" xmlns="http://www.w3.org/2000/svg">
<path d="M30.9297 3.35742L32.0011 3.01824C37.2663 1.35133 42.886 4.26839 44.5529 9.53368L60.0003 58.3276C54.1433 60.1818 47.8922 56.937 46.0379 51.08L30.9297 3.35742Z" fill="black"/>
<path d="M51 8.35742L52.0714 8.01824C57.3367 6.35133 62.9563 9.26839 64.6232 14.5337L75.1748 47.8631C69.3178 49.7174 63.0667 46.4725 61.2124 40.6155L51 8.35742Z" fill="black"/>
<path d="M15.0234 8.39062L16.0948 8.05145C21.3601 6.38453 26.9798 9.3016 28.6467 14.5669L40.1771 50.9883C34.3201 52.8425 28.069 49.5977 26.2147 43.7407L15.0234 8.39062Z" fill="black"/>
<path d="M0 13.1484L1.07137 12.8093C6.33666 11.1423 11.9563 14.0594 13.6232 19.3247L19.8378 38.9548C13.9808 40.8091 7.72966 37.5642 5.87543 31.7072L0 13.1484Z" fill="black"/>
</svg>
